<?xml version="1.0" encoding="UTF-8" standalone="no"?>
<svg
   xmlns:dc="http://purl.org/dc/elements/1.1/"
   xmlns:cc="http://creativecommons.org/ns#"
   xmlns:rdf="http://www.w3.org/1999/02/22-rdf-syntax-ns#"
   xmlns:svg="http://www.w3.org/2000/svg"
   xmlns="http://www.w3.org/2000/svg"
   xmlns:sodipodi="http://sodipodi.sourceforge.net/DTD/sodipodi-0.dtd"
   xmlns:inkscape="http://www.inkscape.org/namespaces/inkscape"
   viewBox="0 0 1941 1941"
   version="1.1"
   id="svg1070"
   sodipodi:docname="twitter.svg"
   inkscape:version="1.0.1 (0767f8302a, 2020-10-17)">
  <metadata
     id="metadata1076">
    <rdf:RDF>
      <cc:Work
         rdf:about="">
        <dc:format>image/svg+xml</dc:format>
        <dc:type
           rdf:resource="http://purl.org/dc/dcmitype/StillImage" />
      </cc:Work>
    </rdf:RDF>
  </metadata>
  <defs
     id="defs1074" />
  <sodipodi:namedview
     pagecolor="#ffffff"
     bordercolor="#666666"
     borderopacity="1"
     objecttolerance="10"
     gridtolerance="10"
     guidetolerance="10"
     inkscape:pageopacity="0"
     inkscape:pageshadow="2"
     inkscape:window-width="1920"
     inkscape:window-height="1010"
     id="namedview1072"
     showgrid="false"
     inkscape:zoom="0.41524987"
     inkscape:cx="970.5"
     inkscape:cy="970.5"
     inkscape:window-x="0"
     inkscape:window-y="34"
     inkscape:window-maximized="1"
     inkscape:current-layer="svg1070"
     inkscape:document-rotation="0" />
  <path
     style="fill:#b2c4cf;fill-opacity:1"
     d="M1758.667 536q-67 98-162 167 1 14 1 42 0 130-38 259.5t-115.5 248.5-184.5 210.5-258 146-323 54.5q-271 0-496-145 35 4 78 4 225 0 401-138-105-2-188-64.5t-114-159.5q33 5 61 5 43 0 85-11-112-23-185.5-111.5t-73.5-205.5v-4q68 38 146 41-66-44-105-115t-39-154q0-88 44-163 121 149 294.5 238.5t371.5 99.5q-8-38-8-74 0-134 94.5-228.5t228.5-94.5q140 0 236 102 109-21 205-78-37 115-142 178 93-10 186-50z"
     id="path1068" />
</svg>
